# xmcd
#
# Track frame offsets:
#	150
#	9233
#	13220
#	25304
#	48802
#	59890
#	98289
#	107051
#	126062
#	142072
#
# Disc length: 2161
#
# Revision: 1
# Processed by: cddbd v1.5.1PL0 Copyright (c) Steve Scherf et al.
# Submitted via: audiograbber 1.81.02
# Normalized: r0:TDELIM( - )
#
DISCID=7e086f0a
DTITLE=Various Artist - Blues Legends, Vol. 2 [CD2)
DYEAR=1900
DGENRE=Blues
TTITLE0=Memphis Slim - Steppin' Out
TTITLE1=Mississippi John Hurt - C.H.I.C.K.E.N. Blues
TTITLE2=Howling Wolf - Ain't Superstitious
TTITLE3=Etta James - Stormy Monday
TTITLE4=Jimmy Reed - You're Somethin' Else
TTITLE5=Big Joe Turner - How Long Blues
TTITLE6=Magic Sam - Black Magic Blues
TTITLE7=Lightnin' Hopkins - Good Times
TTITLE8=Mississippi John Hurt - Coffee Blues
TTITLE9=Etta James - I'd Rather Go Blind
EXTD=
EXTT0=
EXTT1=
EXTT2=
EXTT3=
EXTT4=
EXTT5=
EXTT6=
EXTT7=
EXTT8=
EXTT9=
PLAYORDER=
